<?xml version="1.0" encoding="UTF-8" standalone="no"?>
<svg
   xmlns:dc="http://purl.org/dc/elements/1.1/"
   xmlns:cc="http://creativecommons.org/ns#"
   xmlns:rdf="http://www.w3.org/1999/02/22-rdf-syntax-ns#"
   xmlns:svg="http://www.w3.org/2000/svg"
   xmlns="http://www.w3.org/2000/svg"
   viewBox="0 0 277.81427 84.999947"
   height="84.999947"
   width="277.81427"
   id="svg2"
   version="1.1">
  <metadata
     id="metadata8">
    <rdf:RDF>
      <cc:Work
         rdf:about="">
        <dc:format>image/svg+xml</dc:format>
        <dc:type
           rdf:resource="http://purl.org/dc/dcmitype/StillImage" />
        <dc:title></dc:title>
      </cc:Work>
    </rdf:RDF>
  </metadata>
  <defs
     id="defs6" />
  <path
     id="path12"
     d="m 46.285452,83.953377 c -0.35577,-0.57564 1.35428,-2.80808 3.80009,-4.96097 6.86526,-6.04304 7.22872,-8.25499 7.22872,-43.99241 v -30.5 l -2.5,-0.27995 c -5.15055,-0.57677 -7,-1.30046 -7,-2.7391 0,-1.237407 2.30227,-1.480947 14,-1.480947 11.25318,0 14,0.27142 14,1.383367 0,1.51611 -2.968,2.58171 -7.25,2.60298 l -2.75,0.0136 v 29.8185 c 0,32.60091 -0.60283,37.17917 -5.69175,43.22702 -2.96117,3.51914 -9.50134,7.95448 -11.72936,7.95448 -0.80347,0 -1.75194,-0.47098 -2.1077,-1.04662 z m 43.909462,-17.86297 c -4.48594,-2.73542 -5.380652,-6.51468 -5.380652,-22.72782 v -14.33895 l -4.04726,-0.64719 c -2.97587,-0.47586 -3.96571,-1.07057 -3.73923,-2.2466 0.3237,-1.68082 5.33191,-2.96814 11.952202,-3.07222 l 3.66571,-0.0576 0.33429,16.89724 c 0.29424,14.87305 0.56038,17.14681 2.22158,18.98045 2.75337,3.03919 7.856736,3.68274 13.155846,1.65899 l 4.45686,-1.7021 v -14.9055 -14.90547 l -4.04726,-0.64719 c -2.97587,-0.47586 -3.96571,-1.07057 -3.73923,-2.2466 0.32488,-1.68698 5.33898,-2.96904 12.01535,-3.07222 l 3.72886,-0.0576 0.27114,19.75 0.27114,19.75 3.75,0.31037 c 2.93776,0.24314 3.75,0.73048 3.75,2.25 0,1.57273 -0.70935,1.94171 -3.75,1.95064 -2.0625,0.006 -5.41506,0.28629 -7.45014,0.62275 -3.35661,0.55495 -3.75949,0.37527 -4.33941,-1.93533 l -0.63928,-2.54708 -4.55952,2.42433 c -5.72655,3.04483 -13.370906,3.26489 -17.880996,0.51473 z m 104.979666,0.44942 c -4.67631,-3.27542 -5.57863,-12.42945 -1.65306,-16.77027 2.5678,-2.83943 8.08087,-5.42028 13.29274,-6.22277 8.13023,-1.25185 8,-1.13605 8,-7.11418 0,-6.52961 -2.2402,-9.44 -7.25,-9.41896 -5.51541,0.0232 -7.73229,1.04641 -8.35388,3.85584 -1.2111,5.47384 -1.5821,6.13051 -3.46351,6.13051 -1.69185,0 -1.93261,-0.73527 -1.93261,-5.90217 0,-5.75912 0.0788,-5.92972 3.25,-7.03847 6.16155,-2.15424 14.40335,-2.46346 18.98838,-0.71242 6.75567,2.58001 7.2143,3.92697 7.59546,22.30761 l 0.335,16.15454 3.41558,0.64077 c 4.84812,0.90951 4.36576,3.23094 -0.83442,4.01577 -2.3375,0.35278 -5.47087,0.87444 -6.96304,1.15924 -2.25535,0.43045 -2.81749,0.10167 -3.33215,-1.94889 l -0.6191,-2.4667 -4.16786,2.38331 c -4.85753,2.7777 -13.01748,3.25168 -16.30753,0.94724 z m 16.31868,-5.74072 c 3.31795,-1.19978 3.321,-1.20713 3.321,-8 0,-3.73951 -0.20285,-6.79911 -0.45078,-6.79911 -0.24793,0 -2.71892,0.48643 -5.4911,1.08096 -5.61601,1.20441 -9.05812,4.52 -9.05812,8.72516 0,5.45795 4.76253,7.49402 11.679,4.99299 z m -76.679,4.20089 c 0,-1.66667 0.66667,-2 4,-2 h 4 v -16.9121 -16.9121 l -4.05462,-0.68503 c -3.0162,-0.50958 -3.97385,-1.10444 -3.73923,-2.32268 0.3332,-1.73017 5.27495,-3.00644 12.04385,-3.11046 3.11492,-0.0479 3.75,0.28452 3.75,1.96269 0,2.01331 0.0144,2.01301 4.1276,-0.0854 8.67014,-4.42317 18.84903,-3.35175 22.09276,2.32545 0.83069,1.4539 1.45506,8.02847 1.77964,18.73965 l 0.5,16.5 3.48865,0.5 c 2.27268,0.32572 3.6053,1.10996 3.82332,2.25 0.30315,1.58514 -0.7556,1.75 -11.23865,1.75 -10.90665,-2e-5 -11.57332,-0.11523 -11.57332,-2.00002 0,-1.61905 0.66667,-2 3.5,-2 h 3.5 v -14.36514 c 0,-13.01863 -0.19427,-14.61212 -2.07258,-17 -1.78023,-2.26319 -2.83152,-2.63486 -7.45295,-2.63486 -2.9592,0 -6.52654,0.52223 -7.92742,1.16052 l -2.54705,1.16051 v 15.83949 15.83948 h 3.5 c 2.83333,0 3.5,0.38095 3.5,2 0,1.88406 -0.66667,2 -11.5,2 -10.83333,0 -11.5,-0.11594 -11.5,-2 z M 17.814262,55.459077 C 5.6522424,48.928177 0.2220724,45.482547 0.0120224,44.162937 c -0.24451,-1.53607 3.15796,-3.73883 17.8110696,-11.53087 9.96232,-5.29764 18.31083,-9.63207 18.55224,-9.63207 0.24141,0 0.43893,1.05011 0.43893,2.33357 0,1.99292 -2.18968,3.477 -15,10.16643 -8.25,4.30807 -14.9999996,8.13307 -14.9999996,8.5 0,0.36693 6.7499996,4.19193 14.9999996,8.5 12.81032,6.68943 15,8.17351 15,10.16643 0,1.28346 -0.3375,2.30127 -0.75,2.26178 -0.4125,-0.0395 -8.625,-4.30059 -18.25,-9.46913 z m 222.999998,7.20735 c 0,-1.99292 2.18968,-3.477 15,-10.16643 8.25,-4.30807 15,-8.13307 15,-8.5 0,-0.36693 -6.75,-4.19193 -15,-8.5 -12.81032,-6.68943 -15,-8.17351 -15,-10.16643 0,-1.28346 0.19752,-2.33357 0.43893,-2.33357 0.24141,0 8.56641,4.32193 18.5,9.60429 13.11926,6.97639 18.06107,10.09445 18.06107,11.39571 0,1.30126 -4.94181,4.41932 -18.06107,11.39571 -9.93359,5.28236 -18.25859,9.60429 -18.5,9.60429 -0.24141,0 -0.43893,-1.05011 -0.43893,-2.33357 z"
     style="fill:#191919" />
</svg>
